<svg width="93" height="60" viewBox="0 0 93 60" fill="none" xmlns="http://www.w3.org/2000/svg">
<path d="M0 31.6891V28.2939H3.39526V31.6891H0ZM11.3175 31.6891V28.2939H14.7128V31.6891H11.3175ZM0 28.8597V25.4645H3.39526V28.8597H0ZM9.90285 28.8597V25.4645H13.2981V28.8597H9.90285ZM0 26.0304V22.6351H3.39526V26.0304H0ZM8.48816 26.0304V22.6351H11.8834V26.0304H8.48816ZM0 23.201V19.8057H3.39526V23.201H0ZM7.07347 23.201V19.8057H10.4687V23.201H7.07347ZM0 20.3716V16.9763H3.39526V20.3716H0ZM2.82939 20.3716V16.9763H6.22465V20.3716H2.82939ZM5.65877 20.3716V16.9763H9.05404V20.3716H5.65877ZM8.48816 20.3716V16.9763H11.8834V20.3716H8.48816ZM0 17.5422V14.1469H3.39526V17.5422H0ZM11.3175 17.5422V14.1469H14.7128V17.5422H11.3175ZM0 14.7128V11.3175H3.39526V14.7128H0ZM11.3175 14.7128V11.3175H14.7128V14.7128H11.3175ZM0 11.8834V8.48816H3.39526V11.8834H0ZM11.3175 11.8834V8.48816H14.7128V11.8834H11.3175ZM0 9.05404V5.65877H3.39526V9.05404H0ZM11.3175 9.05404V5.65877H14.7128V9.05404H11.3175ZM0 6.22465V2.82939H3.39526V6.22465H0ZM11.3175 6.22465V2.82939H14.7128V6.22465H11.3175ZM0 3.39526V0H3.39526V3.39526H0ZM2.82939 3.39526V0H6.22465V3.39526H2.82939ZM5.65877 3.39526V0H9.05404V3.39526H5.65877ZM8.48816 3.39526V0H11.8834V3.39526H8.48816Z" fill="#EFEFEF"/>
<path d="M21.2425 31.6891V28.2939H24.6378V31.6891H21.2425ZM24.0719 31.6891V28.2939H27.4672V31.6891H24.0719ZM26.9013 31.6891V28.2939H30.2965V31.6891H26.9013ZM18.4131 28.8597V25.4645H21.8084V28.8597H18.4131ZM29.7307 28.8597V25.4645H33.1259V28.8597H29.7307ZM18.4131 26.0304V22.6351H21.8084V26.0304H18.4131ZM18.4131 23.201V19.8057H21.8084V23.201H18.4131ZM18.4131 20.3716V16.9763H21.8084V20.3716H18.4131ZM21.2425 20.3716V16.9763H24.6378V20.3716H21.2425ZM24.0719 20.3716V16.9763H27.4672V20.3716H24.0719ZM26.9013 20.3716V16.9763H30.2965V20.3716H26.9013ZM29.7307 20.3716V16.9763H33.1259V20.3716H29.7307ZM18.4131 17.5422V14.1469H21.8084V17.5422H18.4131ZM29.7307 17.5422V14.1469H33.1259V17.5422H29.7307ZM18.4131 14.7128V11.3175H21.8084V14.7128H18.4131ZM29.7307 14.7128V11.3175H33.1259V14.7128H29.7307ZM21.2425 11.8834V8.48816H24.6378V11.8834H21.2425ZM24.0719 11.8834V8.48816H27.4672V11.8834H24.0719ZM26.9013 11.8834V8.48816H30.2965V11.8834H26.9013Z" fill="#EFEFEF"/>
<path d="M41.0703 31.6891V28.2939H44.4656V31.6891H41.0703ZM43.8997 31.6891V28.2939H47.295V31.6891H43.8997ZM38.2409 28.8597V25.4645H41.6362V28.8597H38.2409ZM38.2409 26.0304V22.6351H41.6362V26.0304H38.2409ZM38.2409 23.201V19.8057H41.6362V23.201H38.2409ZM38.2409 20.3716V16.9763H41.6362V20.3716H38.2409ZM38.2409 17.5422V14.1469H41.6362V17.5422H38.2409ZM38.2409 14.7128V11.3175H41.6362V14.7128H38.2409ZM35.4115 11.8834V8.48816H38.8068V11.8834H35.4115ZM38.2409 11.8834V8.48816H41.6362V11.8834H38.2409ZM41.0703 11.8834V8.48816H44.4656V11.8834H41.0703ZM43.8997 11.8834V8.48816H47.295V11.8834H43.8997ZM38.2409 9.05404V5.65877H41.6362V9.05404H38.2409ZM38.2409 6.22465V2.82939H41.6362V6.22465H38.2409Z" fill="#EFEFEF"/>
<path d="M50.9649 31.6891V28.2939H54.3601V31.6891H50.9649ZM50.9649 28.8597V25.4645H54.3601V28.8597H50.9649ZM50.9649 26.0304V22.6351H54.3601V26.0304H50.9649ZM50.9649 23.201V19.8057H54.3601V23.201H50.9649ZM50.9649 20.3716V16.9763H54.3601V20.3716H50.9649ZM50.9649 17.5422V14.1469H54.3601V17.5422H50.9649ZM59.453 17.5422V14.1469H62.8483V17.5422H59.453ZM50.9649 14.7128V11.3175H54.3601V14.7128H50.9649ZM59.453 14.7128V11.3175H62.8483V14.7128H59.453ZM53.7943 11.8834V8.48816H57.1895V11.8834H53.7943ZM56.6237 11.8834V8.48816H60.0189V11.8834H56.6237Z" fill="#EFEFEF"/>
<path d="M69.3421 31.6891V28.2939H72.7374V31.6891H69.3421ZM72.1715 31.6891V28.2939H75.5667V31.6891H72.1715ZM75.0009 31.6891V28.2939H78.3961V31.6891H75.0009ZM66.5127 28.8597V25.4645H69.908V28.8597H66.5127ZM77.8302 28.8597V25.4645H81.2255V28.8597H77.8302ZM66.5127 26.0304V22.6351H69.908V26.0304H66.5127ZM77.8302 26.0304V22.6351H81.2255V26.0304H77.8302ZM66.5127 23.201V19.8057H69.908V23.201H66.5127ZM77.8302 23.201V19.8057H81.2255V23.201H77.8302ZM66.5127 20.3716V16.9763H69.908V20.3716H66.5127ZM77.8302 20.3716V16.9763H81.2255V20.3716H77.8302ZM66.5127 17.5422V14.1469H69.908V17.5422H66.5127ZM77.8302 17.5422V14.1469H81.2255V17.5422H77.8302ZM66.5127 14.7128V11.3175H69.908V14.7128H66.5127ZM77.8302 14.7128V11.3175H81.2255V14.7128H77.8302ZM69.3421 11.8834V8.48816H72.7374V11.8834H69.3421ZM72.1715 11.8834V8.48816H75.5667V11.8834H72.1715ZM75.0009 11.8834V8.48816H78.3961V11.8834H75.0009Z" fill="#EFEFEF"/>
<path d="M21.2248 60V56.6047H24.6201V60H21.2248ZM21.2248 57.1706V53.7754H24.6201V57.1706H21.2248ZM21.2248 54.3412V50.946H24.6201V54.3412H21.2248ZM21.2248 51.5118V48.1166H24.6201V51.5118H21.2248ZM21.2248 48.6824V45.2872H24.6201V48.6824H21.2248ZM21.2248 45.8531V42.4578H24.6201V45.8531H21.2248ZM21.2248 43.0237V39.6284H24.6201V43.0237H21.2248ZM21.2248 40.1943V36.799H24.6201V40.1943H21.2248ZM21.2248 37.3649V33.9696H24.6201V37.3649H21.2248ZM21.2248 34.5355V31.1403H24.6201V34.5355H21.2248ZM15.566 31.7061V28.3109H18.9613V31.7061H15.566ZM18.3954 31.7061V28.3109H21.7907V31.7061H18.3954ZM21.2248 31.7061V28.3109H24.6201V31.7061H21.2248ZM24.0542 31.7061V28.3109H27.4495V31.7061H24.0542ZM26.8836 31.7061V28.3109H30.2788V31.7061H26.8836Z" fill="#EFEFEF"/>
<path d="M33.9488 60V56.6047H37.344V60H33.9488ZM36.7781 60V56.6047H40.1734V60H36.7781ZM42.4369 60V56.6047H45.8322V60H42.4369ZM31.1194 57.1706V53.7754H34.5146V57.1706H31.1194ZM39.6075 57.1706V53.7754H43.0028V57.1706H39.6075ZM42.4369 57.1706V53.7754H45.8322V57.1706H42.4369ZM31.1194 54.3412V50.946H34.5146V54.3412H31.1194ZM42.4369 54.3412V50.946H45.8322V54.3412H42.4369ZM33.9488 51.5118V48.1166H37.344V51.5118H33.9488ZM36.7781 51.5118V48.1166H40.1734V51.5118H36.7781ZM39.6075 51.5118V48.1166H43.0028V51.5118H39.6075ZM42.4369 51.5118V48.1166H45.8322V51.5118H42.4369ZM42.4369 48.6824V45.2872H45.8322V48.6824H42.4369ZM42.4369 45.8531V42.4578H45.8322V45.8531H42.4369ZM31.1194 43.0237V39.6284H34.5146V43.0237H31.1194ZM42.4369 43.0237V39.6284H45.8322V43.0237H42.4369ZM33.9488 40.1943V36.799H37.344V40.1943H33.9488ZM36.7781 40.1943V36.799H40.1734V40.1943H36.7781ZM39.6075 40.1943V36.799H43.0028V40.1943H39.6075Z" fill="#EFEFEF"/>
<path d="M50.9472 60V56.6047H54.3424V60H50.9472ZM50.9472 57.1706V53.7754H54.3424V57.1706H50.9472ZM50.9472 54.3412V50.946H54.3424V54.3412H50.9472ZM50.9472 51.5118V48.1166H54.3424V51.5118H50.9472ZM50.9472 48.6824V45.2872H54.3424V48.6824H50.9472ZM50.9472 45.8531V42.4578H54.3424V45.8531H50.9472ZM50.9472 43.0237V39.6284H54.3424V43.0237H50.9472ZM50.9472 40.1943V36.799H54.3424V40.1943H50.9472ZM50.9472 37.3649V33.9696H54.3424V37.3649H50.9472ZM50.9472 34.5355V31.1403H54.3424V34.5355H50.9472ZM50.9472 31.7061V28.3109H54.3424V31.7061H50.9472ZM50.9472 28.8767V25.4815H54.3424V28.8767H50.9472Z" fill="#EFEFEF"/>
<path d="M62.2785 60V56.6047H65.6738V60H62.2785ZM65.1079 60V56.6047H68.5032V60H65.1079ZM67.9373 60V56.6047H71.3326V60H67.9373ZM59.4492 57.1706V53.7754H62.8444V57.1706H59.4492ZM70.7667 57.1706V53.7754H74.162V57.1706H70.7667ZM59.4492 54.3412V50.946H62.8444V54.3412H59.4492ZM59.4492 51.5118V48.1166H62.8444V51.5118H59.4492ZM59.4492 48.6824V45.2872H62.8444V48.6824H59.4492ZM62.2785 48.6824V45.2872H65.6738V48.6824H62.2785ZM65.1079 48.6824V45.2872H68.5032V48.6824H65.1079ZM67.9373 48.6824V45.2872H71.3326V48.6824H67.9373ZM70.7667 48.6824V45.2872H74.162V48.6824H70.7667ZM59.4492 45.8531V42.4578H62.8444V45.8531H59.4492ZM70.7667 45.8531V42.4578H74.162V45.8531H70.7667ZM59.4492 43.0237V39.6284H62.8444V43.0237H59.4492ZM70.7667 43.0237V39.6284H74.162V43.0237H70.7667ZM62.2785 40.1943V36.799H65.6738V40.1943H62.2785ZM65.1079 40.1943V36.799H68.5032V40.1943H65.1079ZM67.9373 40.1943V36.799H71.3326V40.1943H67.9373Z" fill="#EFEFEF"/>
<path d="M80.6917 60V56.6047H84.0869V60H80.6917ZM83.5211 60V56.6047H86.9163V60H83.5211ZM86.3504 60V56.6047H89.7457V60H86.3504ZM77.8623 57.1706V53.7754H81.2575V57.1706H77.8623ZM89.1798 57.1706V53.7754H92.5751V57.1706H89.1798ZM77.8623 54.3412V50.946H81.2575V54.3412H77.8623ZM89.1798 54.3412V50.946H92.5751V54.3412H89.1798ZM86.3504 51.5118V48.1166H89.7457V51.5118H86.3504ZM83.5211 50.0971V46.7019H86.9163V50.0971H83.5211ZM80.6917 48.6824V45.2872H84.0869V48.6824H80.6917ZM77.8623 45.8531V42.4578H81.2575V45.8531H77.8623ZM89.1798 45.8531V42.4578H92.5751V45.8531H89.1798ZM77.8623 43.0237V39.6284H81.2575V43.0237H77.8623ZM89.1798 43.0237V39.6284H92.5751V43.0237H89.1798ZM80.6917 40.1943V36.799H84.0869V40.1943H80.6917ZM83.5211 40.1943V36.799H86.9163V40.1943H83.5211ZM86.3504 40.1943V36.799H89.7457V40.1943H86.3504Z" fill="#EFEFEF"/>
</svg>
